<svg width="32" height="27" viewBox="0 0 32 27" fill="none" xmlns="http://www.w3.org/2000/svg">
<path d="M23.1184 6.49842C22.8019 6.49842 22.4926 6.5732 22.2295 6.71329C21.9663 6.85339 21.7613 7.05251 21.6402 7.28548C21.5191 7.51845 21.4874 7.7748 21.5491 8.02212C21.6109 8.26944 21.7632 8.49662 21.987 8.67493C22.2108 8.85323 22.4959 8.97466 22.8062 9.02386C23.1166 9.07305 23.4383 9.0478 23.7307 8.9513C24.023 8.8548 24.2729 8.69139 24.4487 8.48172C24.6245 8.27205 24.7184 8.02555 24.7184 7.77339C24.7184 7.43525 24.5498 7.11095 24.2497 6.87185C23.9497 6.63275 23.5427 6.49842 23.1184 6.49842ZM29.2517 9.0696C29.2258 8.18807 29.0186 7.31589 28.6384 6.4878C28.2993 5.77927 27.7717 5.13769 27.0917 4.60722C26.4315 4.06262 25.6245 3.64481 24.7317 3.38538C23.6952 3.07318 22.5995 2.9043 21.4917 2.88601C20.0784 2.82227 19.625 2.82227 15.9984 2.82227C12.3717 2.82227 11.9184 2.82227 10.505 2.88601C9.39724 2.9043 8.3015 3.07318 7.26504 3.38538C6.37394 3.64743 5.56762 4.06489 4.90504 4.60722C4.22161 5.13333 3.69727 5.77641 3.37171 6.4878C2.97992 7.3137 2.76799 8.18685 2.74504 9.0696C2.66504 10.1958 2.66504 10.5571 2.66504 13.447C2.66504 16.3369 2.66504 16.6982 2.74504 17.8244C2.76799 18.7071 2.97992 19.5803 3.37171 20.4062C3.69727 21.1176 4.22161 21.7607 4.90504 22.2868C5.56762 22.8291 6.37394 23.2465 7.26504 23.5086C8.3015 23.8208 9.39724 23.9897 10.505 24.008C11.9184 24.0717 12.3717 24.0717 15.9984 24.0717C19.625 24.0717 20.0784 24.0717 21.4917 24.008C22.5995 23.9897 23.6952 23.8208 24.7317 23.5086C25.6245 23.2492 26.4315 22.8314 27.0917 22.2868C27.7747 21.7583 28.3028 21.1161 28.6384 20.4062C29.0186 19.5781 29.2258 18.7059 29.2517 17.8244C29.2517 16.6982 29.3317 16.3369 29.3317 13.447C29.3317 10.5571 29.3317 10.1958 29.2517 9.0696ZM26.8517 17.6969C26.842 18.3713 26.6887 19.0395 26.3984 19.6731C26.1855 20.1355 25.8435 20.5533 25.3984 20.8949C24.9659 21.2461 24.4427 21.518 23.865 21.6918C23.07 21.9231 22.2314 22.0453 21.385 22.053C20.0517 22.1061 19.5584 22.1168 16.0517 22.1168C12.545 22.1168 12.0517 22.1168 10.7184 22.053C9.83956 22.0661 8.9645 21.9583 8.13171 21.7343C7.57941 21.5516 7.08018 21.2804 6.66504 20.9374C6.22249 20.5961 5.88483 20.178 5.67837 19.7156C5.35285 19.0729 5.1723 18.3896 5.14504 17.6969C5.14504 16.6344 5.06504 16.2413 5.06504 13.447C5.06504 10.6527 5.06504 10.2596 5.14504 9.1971C5.15102 8.50762 5.30897 7.82433 5.61171 7.1784C5.84644 6.72995 6.20673 6.33019 6.66504 6.00968C7.07012 5.64437 7.57076 5.35424 8.13171 5.15971C8.94444 4.92601 9.80104 4.80386 10.665 4.79846C11.9984 4.79846 12.4917 4.73472 15.9984 4.73472C19.505 4.73472 19.9984 4.73472 21.3317 4.79846C22.1781 4.8062 23.0166 4.92835 23.8117 5.15971C24.4176 5.33889 24.9614 5.63022 25.3984 6.00968C25.8353 6.33605 26.1767 6.73507 26.3984 7.1784C26.6947 7.82538 26.8481 8.50839 26.8517 9.1971C26.9184 10.2596 26.9317 10.6527 26.9317 13.447C26.9317 16.2413 26.9184 16.6344 26.8517 17.6969ZM15.9984 7.99651C14.6461 7.99861 13.325 8.32006 12.2019 8.92024C11.0788 9.52042 10.2042 10.3724 9.68855 11.3685C9.17289 12.3647 9.03934 13.4602 9.30476 14.5168C9.57019 15.5734 10.2227 16.5436 11.1798 17.3048C12.1369 18.066 13.3557 18.5841 14.6822 18.7935C16.0086 19.003 17.3833 18.8944 18.6323 18.4816C19.8814 18.0687 20.9489 17.3701 21.6999 16.474C22.4509 15.5779 22.8517 14.5245 22.8517 13.447C22.8535 12.7299 22.6773 12.0197 22.3334 11.3571C21.9894 10.6944 21.4844 10.0926 20.8475 9.58602C20.2106 9.07948 19.4543 8.67827 18.6221 8.40548C17.7899 8.1327 16.8982 7.9937 15.9984 7.99651ZM15.9984 16.985C15.1202 16.985 14.2618 16.7775 13.5316 16.3888C12.8015 16 12.2324 15.4474 11.8963 14.8009C11.5603 14.1544 11.4724 13.4431 11.6437 12.7568C11.815 12.0704 12.2379 11.44 12.8588 10.9452C13.4798 10.4504 14.2709 10.1135 15.1322 9.97694C15.9934 9.84042 16.8862 9.91049 17.6975 10.1783C18.5088 10.4461 19.2022 10.8995 19.6901 11.4814C20.178 12.0632 20.4384 12.7472 20.4384 13.447C20.4384 13.9116 20.3235 14.3717 20.1004 14.8009C19.8773 15.2302 19.5502 15.6202 19.1379 15.9488C18.7256 16.2773 18.2362 16.5379 17.6975 16.7157C17.1588 16.8935 16.5814 16.985 15.9984 16.985Z" fill="white"/>
</svg>
