<svg width="32" height="28" viewBox="0 0 32 28" fill="none" xmlns="http://www.w3.org/2000/svg">
<path d="M30.6538 5.1563C30.6538 4.95705 30.5915 4.76135 30.4732 4.5891C30.3549 4.41685 30.1849 4.27417 29.9804 4.17556C29.7759 4.07695 29.5442 4.02592 29.3089 4.02766C29.0735 4.0294 28.8429 4.08385 28.6405 4.18546C27.8597 4.57923 27.0191 4.8808 26.1418 5.08179C24.8898 4.17223 23.2929 3.67455 21.6432 3.67973C19.8335 3.68156 18.0955 4.27875 16.7961 5.34518C15.4967 6.41162 14.7376 7.86385 14.6792 9.39523C11.1109 8.91357 7.87687 7.33676 5.59384 4.96552C5.45628 4.82438 5.28068 4.71328 5.08183 4.64157C4.88298 4.56987 4.66669 4.53966 4.45117 4.55348C4.2357 4.56858 4.02782 4.62786 3.84546 4.7262C3.66311 4.82454 3.51176 4.95898 3.40451 5.11792C2.85454 5.93059 2.53869 6.84163 2.48263 7.77705C2.42657 8.71247 2.63186 9.6459 3.08184 10.5015L3.07917 10.5027C2.87649 10.6081 2.70921 10.7559 2.5934 10.9318C2.4776 11.1078 2.41714 11.3059 2.41784 11.5074C2.4157 11.6731 2.42773 11.8387 2.45384 12.0029C2.59 13.4231 3.33335 14.7525 4.54451 15.7418C4.46232 15.8744 4.41221 16.0196 4.3971 16.1689C4.38199 16.3181 4.40218 16.4685 4.45651 16.611C4.98448 18.0042 6.10752 19.1805 7.60584 19.9096C6.0834 20.4079 4.43957 20.5816 2.81917 20.4153C2.5194 20.3838 2.21586 20.4393 1.95825 20.5729C1.70064 20.7065 1.50425 20.9102 1.40123 21.1506C1.2982 21.391 1.29466 21.6539 1.39118 21.8963C1.4877 22.1386 1.67856 22.3461 1.93251 22.4846C4.71945 24.0041 7.96435 24.8118 11.2792 24.8112C15.0382 24.847 18.7058 23.8301 21.7115 21.9185C24.7172 20.007 26.8926 17.3081 27.8992 14.2415C28.3698 12.9058 28.61 11.5195 28.6125 10.1256L28.6112 9.89984C29.3074 9.26406 29.8467 8.517 30.1974 7.70246C30.5482 6.88791 30.7034 6.02228 30.6538 5.1563ZM26.2458 8.78225C26.0254 9.00263 25.9136 9.28643 25.9338 9.57472C25.9472 9.76099 25.9458 9.94838 25.9458 10.1256C25.943 11.3032 25.7391 12.4743 25.3405 13.6026C24.5187 16.2121 22.6864 18.5126 20.1369 20.1357C17.5874 21.7588 14.4683 22.6106 11.2792 22.5546C10.134 22.5547 8.99282 22.4407 7.87917 22.2148C9.29959 21.8269 10.6277 21.2292 11.8018 20.4492C12.0184 20.3051 12.1768 20.1077 12.2555 19.8842C12.3342 19.6608 12.3292 19.4222 12.2412 19.2012C12.1533 18.9802 11.9866 18.7877 11.7642 18.6502C11.5418 18.5126 11.2746 18.4368 10.9992 18.433C9.89081 18.4183 8.83246 18.0399 8.04717 17.3775C8.24628 17.3459 8.44406 17.3064 8.64051 17.259C8.92854 17.1897 9.18063 17.0403 9.35616 16.8349C9.53169 16.6295 9.62044 16.38 9.60812 16.1267C9.5958 15.8734 9.48313 15.631 9.28825 15.4385C9.09337 15.246 8.82763 15.1146 8.53384 15.0656C7.89049 14.958 7.28513 14.7262 6.76481 14.3883C6.2445 14.0504 5.82325 13.6154 5.53384 13.1171C5.77484 13.145 6.01739 13.1624 6.26051 13.1691C6.54942 13.1731 6.83233 13.0991 7.06823 12.9578C7.30413 12.8166 7.48076 12.6154 7.57251 12.3834C7.66057 12.1494 7.65615 11.8976 7.55991 11.6659C7.46366 11.4343 7.28085 11.2356 7.03917 11.0998C6.45242 10.7691 5.97171 10.3204 5.64012 9.79378C5.30853 9.26716 5.13641 8.67912 5.13917 8.08235C5.13917 8.00784 5.14184 7.93221 5.14717 7.85883C8.13579 10.2189 12.0124 11.6101 16.0938 11.7873C16.2999 11.7939 16.5051 11.7608 16.6938 11.6904C16.8825 11.62 17.0499 11.5142 17.1832 11.3809C17.3152 11.2469 17.4087 11.0887 17.4564 10.9189C17.5041 10.7491 17.5045 10.5722 17.4578 10.4022C17.3815 10.1326 17.3426 9.85644 17.3418 9.57924C17.3433 8.61375 17.7969 7.68815 18.6032 7.00545C19.4096 6.32275 20.5028 5.93868 21.6432 5.93748C22.23 5.93602 22.8109 6.03758 23.349 6.23577C23.8872 6.43396 24.371 6.72446 24.7698 7.08894C24.9236 7.22906 25.1172 7.33353 25.3321 7.39241C25.5471 7.45129 25.7763 7.46263 25.9978 7.42534C26.5456 7.3352 27.0855 7.21375 27.6138 7.06184C27.2536 7.68591 26.7932 8.26486 26.2458 8.78225Z" fill="white"/>
</svg>
