<svg width="32" height="28" viewBox="0 0 32 28" fill="none" xmlns="http://www.w3.org/2000/svg">
<path d="M23.3318 10.4653C22.1383 10.4651 20.9633 10.7153 19.9118 11.1934C19.8158 10.9793 19.6451 10.795 19.4224 10.665C19.1998 10.5349 18.9356 10.4653 18.6651 10.4653H13.3318C12.9782 10.4653 12.639 10.5843 12.389 10.796C12.1389 11.0077 11.9985 11.2948 11.9985 11.5942V25.1407C11.9985 25.4401 12.1389 25.7273 12.389 25.939C12.639 26.1507 12.9782 26.2696 13.3318 26.2696H18.6651C19.0187 26.2696 19.3579 26.1507 19.6079 25.939C19.858 25.7273 19.9985 25.4401 19.9985 25.1407V18.9319C19.9985 18.6325 20.1389 18.3454 20.389 18.1337C20.639 17.922 20.9782 17.803 21.3318 17.803C21.6854 17.803 22.0246 17.922 22.2746 18.1337C22.5246 18.3454 22.6651 18.6325 22.6651 18.9319V25.1407C22.6651 25.4401 22.8056 25.7273 23.0556 25.939C23.3057 26.1507 23.6448 26.2696 23.9985 26.2696H29.3318C29.6854 26.2696 30.0246 26.1507 30.2746 25.939C30.5246 25.7273 30.6651 25.4401 30.6651 25.1407V16.6741C30.6627 15.0281 29.8892 13.4501 28.5145 12.2862C27.1398 11.1222 25.276 10.4674 23.3318 10.4653ZM27.9985 24.0118H25.3318V18.9319C25.3318 18.0337 24.9104 17.1723 24.1602 16.5372C23.4101 15.9021 22.3927 15.5453 21.3318 15.5453C20.2709 15.5453 19.2535 15.9021 18.5034 16.5372C17.7532 17.1723 17.3318 18.0337 17.3318 18.9319V24.0118H14.6651V12.7231H17.3318V13.5167C17.3317 13.7507 17.4174 13.9789 17.5772 14.1698C17.737 14.3607 17.9628 14.5049 18.2236 14.5824C18.4844 14.6599 18.7672 14.6668 19.0328 14.6023C19.2985 14.5378 19.5339 14.405 19.7065 14.2222C20.305 13.5789 21.1259 13.1099 22.0546 12.8806C22.9832 12.6514 23.9732 12.6733 24.8864 12.9435C25.7995 13.2136 26.5903 13.7185 27.1482 14.3875C27.7061 15.0565 28.0034 15.8563 27.9985 16.6753V24.0118ZM9.33179 10.4653H3.99846C3.64483 10.4653 3.3057 10.5843 3.05565 10.796C2.8056 11.0077 2.66512 11.2948 2.66512 11.5942V25.1407C2.66512 25.4401 2.8056 25.7273 3.05565 25.939C3.3057 26.1507 3.64483 26.2696 3.99846 26.2696H9.33179C9.68541 26.2696 10.0245 26.1507 10.2746 25.939C10.5246 25.7273 10.6651 25.4401 10.6651 25.1407V11.5942C10.6651 11.2948 10.5246 11.0077 10.2746 10.796C10.0245 10.5843 9.68541 10.4653 9.33179 10.4653ZM7.99846 24.0118H5.33179V12.7231H7.99846V24.0118ZM6.68512 2.04728C6.10125 2.01716 5.51624 2.08797 4.96571 2.2554C4.41519 2.42283 3.91068 2.68337 3.48289 3.02116C3.05511 3.35895 2.713 3.76693 2.4774 4.22024C2.2418 4.67356 2.11764 5.16273 2.11247 5.65797C2.10731 6.15321 2.22125 6.64416 2.44736 7.10093C2.67347 7.5577 3.00702 7.97072 3.4277 8.31485C3.84838 8.65899 4.34738 8.92703 4.89432 9.10266C5.44127 9.27829 6.02471 9.35783 6.60912 9.33644H6.64646C7.23067 9.3647 7.81555 9.29196 8.36548 9.12265C8.91541 8.95333 9.41887 8.691 9.84518 8.35162C10.2715 8.01225 10.6117 7.60294 10.8451 7.14863C11.0786 6.69433 11.2003 6.20454 11.2029 5.70912C11.2056 5.21369 11.089 4.723 10.8604 4.26694C10.6318 3.81088 10.296 3.399 9.87327 3.05639C9.45058 2.71379 8.94992 2.44763 8.40181 2.27415C7.8537 2.10066 7.26961 2.02347 6.68512 2.04728ZM6.64646 7.07869H6.60912C6.37851 7.10253 6.14455 7.08433 5.92293 7.02533C5.7013 6.96633 5.49715 6.86788 5.32415 6.7366C5.15115 6.60531 5.01332 6.44422 4.91989 6.26412C4.82646 6.08403 4.7796 5.88911 4.78246 5.69243C4.78246 4.84916 5.52912 4.30504 6.68512 4.30504C6.91794 4.2791 7.15461 4.29565 7.37925 4.35358C7.60388 4.41151 7.81126 4.50949 7.98746 4.64091C8.16365 4.77234 8.30458 4.93418 8.40077 5.11555C8.49696 5.29692 8.54618 5.49362 8.54512 5.69243C8.54512 6.53457 7.79846 7.07869 6.64512 7.07869H6.64646Z" fill="white"/>
</svg>
